<mxfile host="65bd71144e">
    <diagram id="btoxd4S9-UjTrWrv2jjD" name="Página-1">
        <mxGraphModel dx="839" dy="467" grid="1" gridSize="10" guides="1" tooltips="1" connect="1" arrows="1" fold="1" page="1" pageScale="1" pageWidth="827" pageHeight="1169" math="0" shadow="0">
            <root>
                <mxCell id="0"/>
                <mxCell id="1" parent="0"/>
                <mxCell id="17" value="" style="edgeStyle=none;html=1;" parent="1" source="2" target="15" edge="1">
                    <mxGeometry relative="1" as="geometry"/>
                </mxCell>
                <mxCell id="2" value="B" style="ellipse;whiteSpace=wrap;html=1;aspect=fixed;" parent="1" vertex="1">
                    <mxGeometry x="440" y="120" width="80" height="80" as="geometry"/>
                </mxCell>
                <mxCell id="16" value="" style="edgeStyle=none;html=1;" parent="1" source="3" target="2" edge="1">
                    <mxGeometry relative="1" as="geometry"/>
                </mxCell>
                <mxCell id="3" value="A" style="ellipse;whiteSpace=wrap;html=1;aspect=fixed;" parent="1" vertex="1">
                    <mxGeometry x="250" y="120" width="80" height="80" as="geometry"/>
                </mxCell>
                <mxCell id="15" value="C" style="ellipse;whiteSpace=wrap;html=1;aspect=fixed;" parent="1" vertex="1">
                    <mxGeometry x="600" y="120" width="80" height="80" as="geometry"/>
                </mxCell>
                <mxCell id="18" value="" style="rhombus;whiteSpace=wrap;html=1;" vertex="1" parent="1">
                    <mxGeometry x="370" y="200" width="80" height="80" as="geometry"/>
                </mxCell>
            </root>
        </mxGraphModel>
    </diagram>
    <diagram id="AgCdfciWAQYjDIACo9Dy" name="Página-2">
        <mxGraphModel dx="482" dy="549" grid="1" gridSize="10" guides="1" tooltips="1" connect="1" arrows="1" fold="1" page="1" pageScale="1" pageWidth="827" pageHeight="1169" math="0" shadow="0">
            <root>
                <mxCell id="0"/>
                <mxCell id="1" parent="0"/>
                <mxCell id="A74JrQSNL-aJe847g_Vh-2" value="" style="rounded=0;whiteSpace=wrap;html=1;strokeColor=#FF0000;" vertex="1" parent="1">
                    <mxGeometry x="294" y="80" width="240" height="60" as="geometry"/>
                </mxCell>
                <mxCell id="A74JrQSNL-aJe847g_Vh-3" value="" style="ellipse;whiteSpace=wrap;html=1;aspect=fixed;strokeColor=#FF0000;" vertex="1" parent="1">
                    <mxGeometry x="294" y="80" width="60" height="60" as="geometry"/>
                </mxCell>
                <mxCell id="A74JrQSNL-aJe847g_Vh-4" value="" style="ellipse;whiteSpace=wrap;html=1;aspect=fixed;strokeColor=#FF0000;" vertex="1" parent="1">
                    <mxGeometry x="354" y="80" width="60" height="60" as="geometry"/>
                </mxCell>
                <mxCell id="A74JrQSNL-aJe847g_Vh-5" value="" style="ellipse;whiteSpace=wrap;html=1;aspect=fixed;strokeColor=#FF0000;" vertex="1" parent="1">
                    <mxGeometry x="414" y="80" width="60" height="60" as="geometry"/>
                </mxCell>
                <mxCell id="A74JrQSNL-aJe847g_Vh-6" value="" style="ellipse;whiteSpace=wrap;html=1;aspect=fixed;strokeColor=#FF0000;" vertex="1" parent="1">
                    <mxGeometry x="474" y="80" width="60" height="60" as="geometry"/>
                </mxCell>
                <mxCell id="A74JrQSNL-aJe847g_Vh-7" value="" style="rounded=0;whiteSpace=wrap;html=1;strokeColor=#FF0000;" vertex="1" parent="1">
                    <mxGeometry x="294" y="320" width="240" height="60" as="geometry"/>
                </mxCell>
                <mxCell id="l-5tELJEjBIoEJD1vR1S-1" style="edgeStyle=none;html=1;exitX=0.5;exitY=1;exitDx=0;exitDy=0;entryX=0.125;entryY=0.046;entryDx=0;entryDy=0;entryPerimeter=0;" edge="1" parent="1" source="A74JrQSNL-aJe847g_Vh-8" target="A74JrQSNL-aJe847g_Vh-7">
                    <mxGeometry relative="1" as="geometry"/>
                </mxCell>
                <mxCell id="A74JrQSNL-aJe847g_Vh-8" value="" style="ellipse;whiteSpace=wrap;html=1;aspect=fixed;strokeColor=#FF0000;" vertex="1" parent="1">
                    <mxGeometry x="294" y="190" width="60" height="60" as="geometry"/>
                </mxCell>
                <mxCell id="l-5tELJEjBIoEJD1vR1S-2" style="edgeStyle=none;html=1;exitX=0.5;exitY=1;exitDx=0;exitDy=0;entryX=0.375;entryY=0.026;entryDx=0;entryDy=0;entryPerimeter=0;" edge="1" parent="1" source="A74JrQSNL-aJe847g_Vh-9" target="A74JrQSNL-aJe847g_Vh-7">
                    <mxGeometry relative="1" as="geometry"/>
                </mxCell>
                <mxCell id="A74JrQSNL-aJe847g_Vh-9" value="" style="ellipse;whiteSpace=wrap;html=1;aspect=fixed;strokeColor=#FF0000;" vertex="1" parent="1">
                    <mxGeometry x="354" y="190" width="60" height="60" as="geometry"/>
                </mxCell>
                <mxCell id="l-5tELJEjBIoEJD1vR1S-3" style="edgeStyle=none;html=1;exitX=0.5;exitY=1;exitDx=0;exitDy=0;entryX=0.634;entryY=0.046;entryDx=0;entryDy=0;entryPerimeter=0;" edge="1" parent="1" source="A74JrQSNL-aJe847g_Vh-10" target="A74JrQSNL-aJe847g_Vh-7">
                    <mxGeometry relative="1" as="geometry"/>
                </mxCell>
                <mxCell id="A74JrQSNL-aJe847g_Vh-10" value="" style="ellipse;whiteSpace=wrap;html=1;aspect=fixed;strokeColor=#FF0000;" vertex="1" parent="1">
                    <mxGeometry x="414" y="190" width="60" height="60" as="geometry"/>
                </mxCell>
                <mxCell id="l-5tELJEjBIoEJD1vR1S-5" style="edgeStyle=none;html=1;exitX=0.5;exitY=1;exitDx=0;exitDy=0;entryX=0.894;entryY=0.105;entryDx=0;entryDy=0;entryPerimeter=0;" edge="1" parent="1" source="A74JrQSNL-aJe847g_Vh-11" target="A74JrQSNL-aJe847g_Vh-7">
                    <mxGeometry relative="1" as="geometry"/>
                </mxCell>
                <mxCell id="A74JrQSNL-aJe847g_Vh-11" value="" style="ellipse;whiteSpace=wrap;html=1;aspect=fixed;strokeColor=#FF0000;" vertex="1" parent="1">
                    <mxGeometry x="474" y="190" width="60" height="60" as="geometry"/>
                </mxCell>
            </root>
        </mxGraphModel>
    </diagram>
</mxfile>